<?xml version="1.0" encoding="utf-8"?>
<!-- Generator: Adobe Illustrator 26.1.0, SVG Export Plug-In . SVG Version: 6.00 Build 0)  -->
<svg version="1.1" id="Layer_1" xmlns="http://www.w3.org/2000/svg" xmlns:xlink="http://www.w3.org/1999/xlink" x="0px" y="0px"
	 viewBox="0 0 100 100" style="enable-background:new 0 0 100 100;" xml:space="preserve">
<style type="text/css">
	.st0{fill:#1FC2FF;}
	.st1{fill:#FEFEFE;}
</style>
<circle id="Ellipse_6" class="st0" cx="50" cy="50" r="50"/>
<g>
	<path class="st1" d="M29.2,57.7C29.2,49.4,31,41.5,34.7,34c0.8-1.6,1.7-2.3,3.5-2.2c2.4,0.1,4.7,0.1,7.1,0c2.4-0.1,2.7,0.8,1.9,2.8
		c-3.4,9-5.3,18.3-4.5,28c0,0.2,0,0.4,0,0.6c0.3,5.1,0.3,5.1-4.8,5.1c-1,0-2.1,0-3.1,0c-4.9,0-5,0-5.5-4.8
		C29.1,61.5,29.2,59.6,29.2,57.7z"/>
	<path class="st1" d="M52.3,58.4c0-9.1,2.1-16.7,5.4-24.2c0.8-1.8,1.9-2.6,3.9-2.4c2.3,0.1,4.5,0.1,6.8,0c2.3-0.1,2.9,0.6,2,2.8
		c-2.6,6.7-4.4,13.7-4.8,20.9c-0.2,3.5,0.1,7,0.7,10.4c0.3,1.9-0.3,2.4-2,2.3c-2.8-0.1-5.7-0.1-8.5,0c-1.9,0.1-2.6-0.8-3-2.6
		C52.3,63,52.3,60.2,52.3,58.4z"/>
</g>
</svg>
