<svg xmlns="http://www.w3.org/2000/svg" xmlns:xlink="http://www.w3.org/1999/xlink" width="24" height="24" viewBox="0 0 24 24"><defs><clipPath id="a"><rect width="24" height="24" fill="none"/></clipPath></defs><g clip-path="url(#a)"><path d="M0,12A12,12,0,1,0,12.017,0,11.973,11.973,0,0,0,0,12" transform="translate(0 0)" fill="#fff"/><path d="M0,12A12,12,0,1,1,11.9,24,11.989,11.989,0,0,1,0,12m19.5,8.149A11.1,11.1,0,1,0,1.039,10.158a10.938,10.938,0,0,0,1.105,6.964,10.13,10.13,0,0,0,2.323,2.99A5.194,5.194,0,0,0,4.5,19.46a3.9,3.9,0,0,1,1.142-2.78,6.248,6.248,0,0,1,2.376-1.487,11.646,11.646,0,0,1,5.294-.613,9.579,9.579,0,0,1,3.518.99,4.351,4.351,0,0,1,2.674,4.3c0,.075,0,.151,0,.278" transform="translate(0 0)" fill="#3063df"/><path d="M29.769,30.241c0-.127,0-.2,0-.278a4.35,4.35,0,0,0-2.674-4.3,9.579,9.579,0,0,0-3.518-.99,11.646,11.646,0,0,0-5.294.613,6.25,6.25,0,0,0-2.376,1.487,3.9,3.9,0,0,0-1.142,2.78,5.211,5.211,0,0,1-.029.652,10.128,10.128,0,0,1-2.323-2.99,10.937,10.937,0,0,1-1.105-6.964,11.106,11.106,0,1,1,18.461,9.993M22.277,14.166a4.552,4.552,0,1,0,4.542,4.562,4.545,4.545,0,0,0-4.542-4.562" transform="translate(-10.269 -10.09)" fill="#fff"/><path d="M98.687,51.515a4.552,4.552,0,1,1-4.562,4.541,4.546,4.546,0,0,1,4.562-4.541" transform="translate(-86.679 -47.439)" fill="#3063df"/></g></svg>