<?xml version="1.0" encoding="utf-8"?>
<!-- Generator: Adobe Illustrator 26.0.3, SVG Export Plug-In . SVG Version: 6.00 Build 0)  -->
<svg version="1.1" id="Layer_1" xmlns="http://www.w3.org/2000/svg" xmlns:xlink="http://www.w3.org/1999/xlink" x="0px" y="0px"
	 viewBox="0 0 360 144" style="enable-background:new 0 0 360 144;" xml:space="preserve">
<style type="text/css">
	.st0{fill:#3063DF;}
	.st1{fill:#FFD60D;}
</style>
<g>
	<polygon class="st0" points="164.29,141.49 168.89,141.49 168.89,132.03 178,132.03 178,128.04 168.89,128.04 168.89,121.77 
		180.09,121.77 180.09,117.75 164.29,117.75 	"/>
	<rect x="186.41" y="117.75" class="st0" width="4.6" height="23.75"/>
	<polygon class="st0" points="215.21,135.03 203.97,117.75 198.91,117.75 198.91,141.49 203.32,141.49 203.32,124.24 214.68,141.72 
		219.62,141.72 219.62,117.75 215.21,117.75 	"/>
	<path class="st0" d="M233.53,117.75l-8.66,23.75h4.67l1.94-5.62h9.57l1.97,5.62h4.67l-8.55-23.75H233.53z M232.7,132.03l3.61-10.3
		l3.57,10.3H232.7z"/>
	<polygon class="st0" points="269.26,135.03 258.01,117.75 252.96,117.75 252.96,141.49 257.36,141.49 257.36,124.24 268.73,141.72 
		273.66,141.72 273.66,117.75 269.26,117.75 	"/>
	<path class="st0" d="M291.99,121.17c2.28,0,4.33,0.65,6.23,1.9l1.45-4.03c-2.05-1.14-4.9-1.86-7.67-1.86
		c-7.41,0-12.39,4.9-12.39,12.5c0,7.79,4.98,12.38,12.27,12.38c2.7,0,5.66-0.72,7.56-1.86l-0.87-4.26c-1.75,1.22-4.06,2.13-6.5,2.13
		c-4.79,0-7.79-3.31-7.79-8.55C284.27,124.36,287.35,121.17,291.99,121.17z"/>
	<rect x="306.24" y="117.75" class="st0" width="4.6" height="23.75"/>
	<path class="st0" d="M324.07,117.75l-8.66,23.75h4.67l1.94-5.62h9.57l1.98,5.62h4.67l-8.55-23.75H324.07z M323.23,132.03l3.61-10.3
		l3.57,10.3H323.23z"/>
	<polygon class="st0" points="347.36,137.43 347.36,117.75 342.73,117.75 342.73,141.49 358.08,141.49 358.08,137.43 	"/>
	<path class="st0" d="M84.51,51.3c-14.34,0-24.96,11.07-24.96,24.78c0,12.89,9.26,20.15,23.05,20.15c5.45,0,11.35-1.18,14.79-2.72
		l-1.73-10.62c-2.81,1.45-7.44,3.09-11.89,3.09c-5.54,0-10.53-2.72-10.53-8.62c0-0.18,0-0.45,0-0.64l26.86-0.27
		c1.18-2.81,2-6.99,2-10.07C102.12,56.56,95.22,51.3,84.51,51.3z M88.41,69.9l-13.7,0.09c1.27-5.99,4.72-9.53,8.98-9.53
		c3.36,0,5.36,2,5.36,5.45C89.05,67,88.78,68.9,88.41,69.9z"/>
	<path class="st0" d="M142.87,51.3c-5.17,0-8.62,2.36-11.43,4.72l0.82-4.36l-14.43,1.72l-11.62,60.26h13.98l3.81-20.15
		c2.9,1.45,6.26,2.63,10.16,2.63c13.7,0,24.23-10.98,24.23-26.14C158.38,58.38,151.49,51.3,142.87,51.3z M133.25,85.97
		c-3.09,0-5.45-1.45-7.17-3.09l3.81-18.51c1.73-1.27,3.72-2.54,6.72-2.54c4.27,0,7.53,3.54,7.53,9.44
		C144.14,78.71,139.87,85.97,133.25,85.97z"/>
	<path class="st0" d="M202.31,53.2c-1.82-1.27-3.9-1.91-6.17-1.91c-3.9,0-7.8,2.45-10.62,6.53l1.18-6.17l-14.34,1.72l-8.08,41.47
		h13.98l5.08-25.77c2.72-3.45,5.81-5.08,9.44-5.08c2.45,0,4.63,0.64,6.54,1.72L202.31,53.2z"/>
	<polygon class="st0" points="205.13,94.86 219.1,94.86 227.45,51.93 213.21,53.11 	"/>
	<path class="st0" d="M238.35,65.55c0,6.53,3.81,10.25,13.34,12.71c4.81,1.45,6.99,2.45,6.99,4.54c0,2.18-2.18,3.45-4.9,3.45
		c-4.99,0-11.53-2.27-16.7-5.17l-2.81,10.89c5.08,2.63,12.61,4.27,18.97,4.27c11.8,0,18.78-6.17,18.78-14.43
		c0-6.9-3.72-10.25-13.25-12.98c-4.81-1.54-6.99-2.27-6.99-4.27c0-2,1.91-3.18,4.45-3.18c4.99,0,10.71,2,16.33,5.17l2.9-10.89
		c-5.17-2.72-12.43-4.36-18.69-4.36C245.24,51.3,238.35,57.38,238.35,65.55z"/>
	<path class="st0" d="M319.03,82.88c-2.81,1.45-7.44,3.09-11.89,3.09c-5.54,0-10.53-2.72-10.53-8.62c0-0.18,0-0.45,0-0.64
		l26.86-0.27c1.18-2.81,2-6.99,2-10.07c0-9.8-6.9-15.07-17.6-15.07c-14.34,0-24.96,11.07-24.96,24.78
		c0,12.89,9.26,20.15,23.05,20.15c5.45,0,11.35-1.18,14.79-2.72L319.03,82.88z M307.05,60.46c3.36,0,5.35,2,5.35,5.45
		c0,1.09-0.27,2.99-0.64,3.99l-13.7,0.09C299.33,64,302.78,60.46,307.05,60.46z"/>
	<path class="st1" d="M203.16,31.8c4.11,0.06,8.06,1.05,12.01,2.09c5.66,1.49,11.18,3.47,16.95,4.6c9.23,1.8,17.65,0.37,24.96-5.86
		c0.26-0.22,0.76-0.36,0.6-0.79c-0.13-0.35-0.58-0.2-0.89-0.21c-2.37-0.04-4.71-0.39-7.02-0.88c-5.56-1.18-10.92-3.06-16.4-4.53
		c-4.16-1.12-8.35-1.97-12.78-2.01c-6.68,0.01-12.55,2.37-17.67,6.73c-0.2,0.17-0.59,0.29-0.44,0.65
		C202.58,31.86,202.91,31.79,203.16,31.8z"/>
	<path class="st0" d="M224.86,17.56c8.46,0.13,16.59,2.15,24.7,4.29c11.64,3.07,23.01,7.15,34.87,9.47
		c18.98,3.71,36.32,0.76,51.35-12.06c0.53-0.45,1.56-0.75,1.24-1.62c-0.26-0.71-1.2-0.41-1.83-0.42c-4.89-0.08-9.69-0.81-14.45-1.82
		c-11.44-2.42-22.47-6.3-33.75-9.33c-8.56-2.3-17.18-4.06-26.29-4.13c-13.74,0.02-25.82,4.89-36.35,13.85
		c-0.42,0.36-1.21,0.6-0.91,1.34C223.68,17.69,224.36,17.55,224.86,17.56z"/>
	<path class="st0" d="M34.32,38.23H12.9l-2.19,11.25h20.34c5.17,0,9.35,2.27,9.35,7.08c0,6.53-5.81,8.62-12.34,8.71l-6.54,0.09
		l1.79-8.48H9.28L1.92,94.86h14.34l3.63-18.69l6.44-0.54l7.53,19.24H49.2l-8.98-21.69c8.53-2.36,15.06-8.53,15.06-18.33
		C55.28,45.4,47.39,38.23,34.32,38.23z"/>
</g>
</svg>
