<?xml version="1.0" encoding="utf-8"?>
<!-- Generator: Adobe Illustrator 28.2.0, SVG Export Plug-In . SVG Version: 6.00 Build 0)  -->
<svg version="1.1" id="Layer_1" xmlns="http://www.w3.org/2000/svg" xmlns:xlink="http://www.w3.org/1999/xlink" x="0px" y="0px"
	 viewBox="0 0 48 48" style="enable-background:new 0 0 48 48;" xml:space="preserve">
<style type="text/css">
	.st0{fill:#3063DF;}
</style>
<g id="c">
	<path id="d" class="st0" d="M24,6c9.9,0,18,8.1,18,18s-8.1,18-18,18S6,33.9,6,24l0,0l0,0C6,14.1,14.1,6,24,6L24,6 M24,10.5
		c-7.5,0-13.5,6-13.5,13.5s6,13.5,13.5,13.5s13.5-6,13.5-13.5l0,0C37.5,16.5,31.5,10.5,24,10.5"/>
</g>
<path id="c-2" class="st0" d="M16.2,18.8h15.5v10.3H16.2V18.8 M24,21.4c1.4,0,2.6,1.2,2.6,2.6c0,1.4-1.2,2.6-2.6,2.6
	c-1.4,0-2.6-1.2-2.6-2.6l0,0C21.4,22.6,22.6,21.4,24,21.4C24,21.4,24,21.4,24,21.4L24,21.4 M19.7,20.5c0,0.9-0.7,1.7-1.7,1.7l0,0
	v3.5c0.9,0,1.7,0.8,1.7,1.7h8.6c0-0.9,0.7-1.7,1.6-1.7v-3.5c-0.9,0-1.7-0.8-1.7-1.7H19.7z"/>
</svg>
