<?xml version="1.0" encoding="utf-8"?>
<!-- Generator: Adobe Illustrator 28.2.0, SVG Export Plug-In . SVG Version: 6.00 Build 0)  -->
<svg version="1.1" id="Layer_1" xmlns="http://www.w3.org/2000/svg" xmlns:xlink="http://www.w3.org/1999/xlink" x="0px" y="0px"
	 viewBox="0 0 48 48" style="enable-background:new 0 0 48 48;" xml:space="preserve">
<style type="text/css">
	.st0{fill:#3063DF;}
	.st1{clip-path:url(#SVGID_00000077304202818380126260000018150333606707936904_);}
</style>
<g>
	<g id="c">
		<path id="d" class="st0" d="M24,6c9.9,0,18,8.1,18,18s-8.1,18-18,18S6,33.9,6,24l0,0l0,0C6,14.1,14.1,6,24,6L24,6 M24,10.5
			c-7.5,0-13.5,6-13.5,13.5s6,13.5,13.5,13.5s13.5-6,13.5-13.5l0,0C37.5,16.5,31.5,10.5,24,10.5"/>
	</g>
	<g>
		<defs>
			<rect id="SVGID_1_" x="17.8" y="13" width="12.5" height="22"/>
		</defs>
		<clipPath id="SVGID_00000080197152398192982140000017535681902525395110_">
			<use xlink:href="#SVGID_1_"  style="overflow:visible;"/>
		</clipPath>
		<g style="clip-path:url(#SVGID_00000080197152398192982140000017535681902525395110_);">
			<g id="d-2">
				<path id="e" class="st0" d="M17.8,27.7h2.5c0,1.3,1.7,2.4,3.7,2.4s3.7-1.1,3.7-2.4s-1.3-1.8-4-2.5s-5.9-1.5-5.9-4.9
					c0-2.2,1.8-4,4.4-4.7V13h3.7v2.7c2.5,0.6,4.4,2.5,4.4,4.7h-2.5c0-1.3-1.7-2.4-3.7-2.4s-3.7,1.1-3.7,2.4s1.3,1.8,4,2.5
					s5.9,1.5,5.9,4.9c0,2.2-1.8,4-4.4,4.7V35h-3.7v-2.7C19.6,31.7,17.8,29.8,17.8,27.7"/>
			</g>
		</g>
	</g>
</g>
</svg>
